<svg id="图层_1" data-name="图层 1" xmlns="http://www.w3.org/2000/svg" viewBox="0 0 254.7 86"><defs><style>.cls-1{fill:#222;}</style></defs><title>EasyVote-zh</title><polygon class="cls-1" points="42.53 70.95 14.93 46.1 22.52 37.67 42.53 55.7 86.08 16.49 86 0 0 0 0 86 86 86 86.08 31.75 42.53 70.95"/><path class="cls-1" d="M244.65,343.54a51.35,51.35,0,0,0,3-4.3h33.66V308.59H231.41v30.65h7.3A59.54,59.54,0,0,1,221,354.54l-1.42.8,1.35.9a27.23,27.23,0,0,1,4.15,3.72l.56.65.72-.45a69.15,69.15,0,0,0,12-9.6h8.18a57.81,57.81,0,0,1-19.28,17.7l-1.33.75,1.21.92a42.24,42.24,0,0,1,4.15,3.86l.57.61.7-.45a71,71,0,0,0,22.54-23.39h8.05c-3.64,8.39-9,15.55-15.3,20.25l-1.24.92,1.35.75a31.1,31.1,0,0,1,4.31,3.31l.64.6.68-.56c7.27-6.05,13.44-15,17.44-25.27h7.37c-.69,7.19-1.81,16.27-3.7,18l-.07.08c-.37.4-.71.49-2,.49a81.61,81.61,0,0,1-8.29-.37l-2-.21,1.06,1.73a10.61,10.61,0,0,1,1.35,4.4l.05.89.89.06a77.45,77.45,0,0,0,9.32.07,7.44,7.44,0,0,0,5.71-2.4c2.58-2.67,4.06-9.74,5.44-26a26.27,26.27,0,0,0,.24-2.68l.05-1Zm29.06-16.45v5.42H238.88v-5.42Zm0-11.85v5.42H238.88v-5.42Z" transform="translate(-113 -297)"/><path class="cls-1" d="M318.54,332.38l1.67.86a14.31,14.31,0,0,1,4.36,3.26l.57.7.75-.5c9.59-6.32,10.7-14.58,10.7-20.25V314.3h11.05v11c0,5.66,1.18,8.72,7.38,8.72h6.3a15.6,15.6,0,0,0,4.34-.42l.84-.26-.15-.87a44.29,44.29,0,0,1-.43-4.68l-.07-1.19-1.16.27a18.47,18.47,0,0,1-3.52.35h-6c-.08-.1-.19-.47-.19-1.84V307.05H329.34v9.25c0,4.72-1,10.71-9.15,15.17Z" transform="translate(-113 -297)"/><path class="cls-1" d="M365.82,368.4a60.75,60.75,0,0,1-18.38-6.88,47.83,47.83,0,0,0,13.87-21l.29-.85-4.72-2.16-1.27.27h-34.3l-6.9,2V327.46h9.3v-7.25h-9.3v-15h-7.48v15h-10.2v7.25h10.2v14.37c-4.34,1.24-7.73,2.15-10.33,2.78l-1,.25,2.25,7.36,9.11-2.67v18a3.18,3.18,0,0,1,0,.38,1.18,1.18,0,0,1-.4,0h-.72c-1.42,0-4.05,0-7-.08l-1.61-.07.66,1.48a23.53,23.53,0,0,1,1.65,4.92l.13.84h.86c5.41,0,8.53-.17,10.51-1.12,2.38-1,3.39-2.92,3.39-6.4V347.23l7.34-2.2h1.84A53.74,53.74,0,0,0,335,361.33a64.51,64.51,0,0,1-18.82,7.15l-1.66.36,1.12,1.28a16.74,16.74,0,0,1,2.58,4.75l.29.89.91-.24a71.78,71.78,0,0,0,21.7-9.2,60.32,60.32,0,0,0,20.78,9.13l.79.2.35-.74a19.16,19.16,0,0,1,3.31-4.8l1.4-1.31Zm-24.64-11.35a42.9,42.9,0,0,1-9.79-12h19.85A40.08,40.08,0,0,1,341.18,357.05Z" transform="translate(-113 -297)"/></svg>