<svg id="图层_1" data-name="图层 1" xmlns="http://www.w3.org/2000/svg" viewBox="0 0 351.28 86"><defs><style>.cls-1{fill:#222;}</style></defs><title>EasyVote-en</title><polygon class="cls-1" points="42.53 70.95 14.93 46.1 22.52 37.67 42.53 55.7 86.08 16.49 86 0 0 0 0 86 86 86 86.08 31.75 42.53 70.95"/><path class="cls-1" d="M225.56,367.14V308.87h25v8.52H233.74v15.42h15.7v8.52h-15.7v17.29h16.81v8.52Z" transform="translate(-113 -297)"/><path class="cls-1" d="M278.2,367.14v-2.67a11.52,11.52,0,0,1-1.07,1A14.53,14.53,0,0,1,274,367a14.26,14.26,0,0,1-5.27,1,14.55,14.55,0,0,1-11.36-5.15q-4.56-5.15-4.57-13.19t4.57-13.19a15.19,15.19,0,0,1,16.52-4.26,11.94,11.94,0,0,1,3.31,1.71l1,.89v-2.68h7.59v35.06Zm-2.29-9.94a12.45,12.45,0,0,0,0-15.18,8.91,8.91,0,0,0-13,0,12.45,12.45,0,0,0,0,15.18,8.91,8.91,0,0,0,13,0Z" transform="translate(-113 -297)"/><path class="cls-1" d="M288.37,362.84l4.13-6.09q.51.5,1.32,1.14a18.55,18.55,0,0,0,3.25,1.79,10.92,10.92,0,0,0,4.57,1.13c2.65,0,4-1.18,4-3.56a3.11,3.11,0,0,0-1.59-2.67,19.67,19.67,0,0,0-3.76-1.9l-4.5-1.76a8.43,8.43,0,0,1-3.9-3.21,10,10,0,0,1-1.58-5.81,10.2,10.2,0,0,1,3.09-7.63,10.6,10.6,0,0,1,7.67-3,17.75,17.75,0,0,1,6.15,1.06,13.76,13.76,0,0,1,4.24,2.19l1.33,1.05-3.46,5.76a12.27,12.27,0,0,0-7.67-2.92,3.9,3.9,0,0,0-2.69.83,2.58,2.58,0,0,0-.92,2,3,3,0,0,0,1.57,2.57,24.47,24.47,0,0,0,3.73,1.84l4.46,1.78a8,8,0,0,1,3.83,3.42,11.77,11.77,0,0,1,1.52,6.22A10.44,10.44,0,0,1,310,365a11.34,11.34,0,0,1-8.25,3,19.89,19.89,0,0,1-4.54-.52,17.58,17.58,0,0,1-3.79-1.3c-1-.51-1.95-1-2.73-1.5a17.33,17.33,0,0,1-1.77-1.22Z" transform="translate(-113 -297)"/><path class="cls-1" d="M345,332.08l-18.36,50.65-8,0,5.6-15.61-12.61-35.07h8.26l8.44,23.7,8.52-23.7Z" transform="translate(-113 -297)"/><path class="cls-1" d="M385.83,308.87,364,369.58l-22-60.71h8.84l13.17,36.82,13.08-36.82Z" transform="translate(-113 -297)"/><path class="cls-1" d="M407.36,336.59a20.1,20.1,0,0,1,0,26.05,15.92,15.92,0,0,1-23.74,0,20.07,20.07,0,0,1,0-26.05,15.9,15.9,0,0,1,23.74,0ZM389,342.11a12.21,12.21,0,0,0,0,15,8.74,8.74,0,0,0,13,0,12.21,12.21,0,0,0,0-15,8.72,8.72,0,0,0-13,0Z" transform="translate(-113 -297)"/><path class="cls-1" d="M413.25,340v-8h3.69V321h7.59v11.12h7.52v8h-7.52v27.1h-7.59V340Z" transform="translate(-113 -297)"/><path class="cls-1" d="M464.28,349.28l-24.7,5.2a9.37,9.37,0,0,0,3.47,4,9,9,0,0,0,5,1.48,8.21,8.21,0,0,0,4.42-1.18,7,7,0,0,0,2.58-2.39l.74-1.14,6.64,3.74q-.15.32-.48.93a17.3,17.3,0,0,1-1.59,2.15,16.5,16.5,0,0,1-2.76,2.72,15.62,15.62,0,0,1-4.13,2.15,15.84,15.84,0,0,1-5.57,1,15.62,15.62,0,0,1-12.23-5.27,20.27,20.27,0,0,1,.07-26.09,16,16,0,0,1,23.66-.14A18.9,18.9,0,0,1,464.28,349.28Zm-16.67-10.06a8.47,8.47,0,0,0-6.12,2.44,10,10,0,0,0-2.88,6.49l17-3.58A8.19,8.19,0,0,0,447.61,339.22Z" transform="translate(-113 -297)"/></svg>